# AST/ASF file generated using VICON BodyLanguage
# -----------------------------------------------
:version 1.10
:name VICON
:units
  mass 1.0
  length 0.45
  angle deg
:documentation
   .ast/.asf automatically generated from VICON data using
   VICON BodyBuilder and BodyLanguage model FoxedUp or BRILLIANT.MOD
:root
   order TX TY TZ RX RY RZ
   axis XYZ
   position 0 0 0  
   orientation 0 0 0 
:bonedata
  begin
     id 1 
     name lhipjoint
     direction 0.561001 -0.76473 0.316963 
     length 2.4722 
     axis 0 0 0  XYZ
  end
  begin
     id 2 
     name lfemur
     direction 0.34202 -0.939693 0  
     length 7.59403  
     axis 0 0 20  XYZ
    dof rx ry rz
    limits (-160.0 20.0)
           (-70.0 70.0)
           (-60.0 70.0)
  end
  begin
     id 3 
     name ltibia
     direction 0.34202 -0.939693 0   
     length 7.89655   
     axis 0 0 20   XYZ
    dof rx
    limits (-10.0 170.0)
  end
  begin
     id 4 
     name lfoot
     direction 0.061296 -0.168409 0.98381   
     length 2.73287   
     axis -90 7.62852e-016 20   XYZ
    dof rx rz
    limits (-45.0 90.0)
           (-70.0 20.0)
  end
  begin
     id 5 
     name ltoes
     direction 1.53547e-011 -4.21984e-011 1   
     length 1.37057   
     axis -90 7.62852e-016 20   XYZ
    dof rx
    limits (-90.0 20.0)
  end
  begin
     id 6 
     name rhipjoint
     direction -0.559611 -0.765599 0.317323   
     length 2.46939  
     axis 0 0 0  XYZ 
  end
  begin
     id 7 
     name rfemur
     direction -0.34202 -0.939693 0   
     length 7.53712   
     axis 0 0 -20   XYZ
    dof rx ry rz
    limits (-160.0 20.0)
           (-70.0 70.0)
           (-70.0 60.0)
  end
  begin
     id 8 
     name rtibia
     direction -0.34202 -0.939693 0   
     length 8.12549   
     axis 0 0 -20   XYZ
    dof rx
    limits (-10.0 170.0)
 end
 begin
     id 9 
     name rfoot
     direction -0.066984 -0.184037 0.980634   
     length 2.67541  
     axis -90 -7.62852e-016 -20   XYZ
    dof rx rz
    limits (-45.0 90.0)
           (-20.0 70.0)
  end
  begin
     id 10 
     name rtoes
     direction -1.53549e-011 -4.21786e-011 1   
     length 1.34085   
     axis -90 -7.62852e-016 -20   XYZ
    dof rx
    limits (-90.0 20.0)
  end
  begin
     id 11 
     name lowerback
     direction -0.0522728 0.992594 -0.109658   
     length 2.05633   
     axis 0 0 0   XYZ
    dof rx ry rz
    limits (-20.0 45.0)
           (-30.0 30.0)
           (-30.0 30.0)
  end
  begin
     id 12 
     name upperback
     direction 0.00589338 0.999977 0.00335704   
     length 2.05845   
     axis 0 0 0   XYZ
    dof rx ry rz
    limits (-20.0 45.0)
           (-30.0 30.0)
           (-30.0 30.0)
  end
  begin
     id 13 
     name thorax
     direction 0.0292928 0.998059 0.0549487   
     length 2.09281   
     axis 0 0 0   XYZ
    dof rx ry rz
    limits (-20.0 45.0)
           (-30.0 30.0)
           (-30.0 30.0)
  end
  begin
     id 14 
     name lowerneck
     direction 0.0356368 0.980775 0.191858   
     length 1.84767   
     axis 0 0 0   XYZ
    dof rx ry rz
    limits (-20.0 45.0)
           (-30.0 30.0)
           (-30.0 30.0)
  end
  begin
     id 15 
     name upperneck
     direction -0.0227605 0.98931 -0.14404   
     length 1.89582   
     axis 0 0 0   XYZ
    dof rx ry rz
    limits (-20.0 45.0)
           (-30.0 30.0)
           (-30.0 30.0)
  end
  begin
     id 16
     name head
     direction -0.00932985 0.997511 -0.0698904  
     length 1.90213  
     axis 0 0 0   XYZ
    dof rx ry rz
    limits (-20.0 45.0)
           (-30.0 30.0)
           (-30.0 30.0)
  end
  begin
     id 17 
     name lclavicle
     direction 0.873442 0.479511 0.0846686  
     length 3.41193  
     axis 0 0 0   XYZ
    dof ry rz
    limits (-20.0 10.0)
           (0.0 20.0)
  end
  begin
     id 18 
     name lhumerus
     direction 1 -4.4897e-011 -5.62117e-018   
     length 5.59864   
     axis 180 -30 -90   XYZ
    dof rx ry rz
    limits (-60.0 90.0)
           (-90.0 90.0)
           (-90.0 90.0)
  end
  begin
     id 19
     name lradius
     direction 1 -4.48966e-011 -6.26295e-027   
     length 3.59542   
     axis 180 -30 -90   XYZ
    dof rx
    limits (-10.0 170.0)
  end
  begin
     id 20
     name lwrist
     direction 1 -4.48947e-011 -1.74096e-026   
     length 1.79771   
     axis 1.04567e-014 90 90   XYZ
    dof ry
    limits (-180.0 0.0)
 end
  begin
     id 21 
     name lhand
     direction 1 -4.49085e-011 -3.48469e-026   
     length 0.572014   
     axis 2.22196e-014 90 90   XYZ
    dof rx rz
    limits (-90.0 90.0)
           (-45.0 45.0)
  end
  begin
     id 22 
     name lfingers
     direction 1 -4.48884e-011 -6.96135e-026   
     length 0.461173   
     axis 4.44383e-014 90 90   XYZ
    dof rx
    limits (0.0 90.0)
  end
  begin
     id 23
     name lthumb
     direction 0.707107 -6.34976e-011 0.707107   
     length 0.662154   
     axis -90 45 -5.4397e-014   XYZ
    dof rx rz
    limits (-45.0 45.0)
           (-45.0 45.0)
  end
  begin
     id 24 
     name rclavicle
     direction -0.890242 0.443271 0.104786   
     length 3.46753  
     axis 0 0 0   XYZ 
    dof ry rz
    limits (-10.0 20.0)
           (-20.0 0.0)
  end
  begin
     id 25 
     name rhumerus
     direction -1 -4.48963e-011 -5.41723e-018  
     length 5.8094   
     axis 180 30 90   XYZ
    dof rx ry rz
    limits (-90.0 60.0)
           (-90.0 90.0)
           (-90.0 90.0)
  end
  begin
     id 26 
     name rradius
     direction -1 -4.48958e-011 -6.51059e-027   
     length 3.66953   
     axis 180 30 90   XYZ
    dof rx
    limits (-10.0 170.0)
  end
  begin
     id 27 
     name rwrist
     direction -1 -4.48975e-011 -1.74124e-026   
     length 1.83476   
     axis 1.04567e-014 -90 -90   XYZ
    dof ry
    limits (-180.0 0.0)
  end
  begin
     id 28
     name rhand
     direction -1 -4.49013e-011 -3.48326e-026   
     length 0.57843   
     axis 2.22196e-014 -90 -90   XYZ
    dof rx rz
    limits (-90.0 90.0)
           (-45.0 45.0)
  end
  begin
     id 29
     name rfingers
     direction -1 -4.49023e-011 -6.9669e-026   
     length 0.466345   
     axis 4.44383e-014 -90 -90   XYZ
    dof rx
    limits (0.0 90.0)
  end
  begin
     id 30
     name rthumb
     direction -0.707107 -6.34926e-011 0.707107   
     length 0.669581   
     axis -90 -45 5.4397e-014   XYZ
    dof rx rz
    limits (-45.0 45.0)
           (-45.0 45.0)
  end
:hierarchy
  begin
    root lhipjoint rhipjoint lowerback
    lhipjoint lfemur
    lfemur ltibia
    ltibia lfoot
    lfoot ltoes
    rhipjoint rfemur
    rfemur rtibia
    rtibia rfoot
    rfoot rtoes
    lowerback upperback
    upperback thorax
    thorax lowerneck lclavicle rclavicle
    lowerneck upperneck
    upperneck head
    lclavicle lhumerus
    lhumerus lradius
    lradius lwrist
    lwrist lhand lthumb
    lhand lfingers
    rclavicle rhumerus
    rhumerus rradius
    rradius rwrist
    rwrist rhand rthumb
    rhand rfingers
  end

#!OML:ASF H:\SkateBoarding\Project 1\Capture day 1\Session 1\Skater.ASF
:FULLY-SPECIFIED
:DEGREES
163
root 5.4136 19.8709 0.618393 9.45431 80.2796 2.60222
lowerback 13.1133 -5.22964 -5.36806
upperback 0.136469 -7.72088 -0.0127797
thorax -6.46685 -3.5902 4.36129
lowerneck -15.6124 -10.5514 -4.50973
upperneck 35.8673 -16.1129 6.20334
head 16.4389 -6.24708 0.475077
rclavicle -7.45443e-014 1.90833e-014
rhumerus -51.6082 17.5638 -92.5654
rradius 54.7699
rwrist -6.14817
rhand -34.7477 16.5849
rfingers 7.12502
rthumb -7.90122 -13.2475
lclavicle -7.45443e-014 1.90833e-014
lhumerus -28.5951 -26.0353 90.0495
lradius 74.0574
lwrist 36.063
lhand -26.3265 25.7093
lfingers 7.12502
lthumb 0.230419 55.689
rfemur -22.4658 6.72994 17.4186
rtibia 43.3099
rfoot -32.9758 6.66187
rtoes -2.87071
lfemur -18.1039 -10.3702 -9.01799
ltibia 39.2229
lfoot -32.2534 1.27388
ltoes -19.2431
164
root 5.37978 19.8741 0.89704 10.9649 80.3796 4.08487
lowerback 13.341 -5.08847 -5.59414
upperback 0.264862 -7.57416 -0.0600219
thorax -6.44917 -3.5124 4.4285
lowerneck -15.6511 -10.6664 -4.57165
upperneck 35.6842 -16.2936 6.32865
head 16.3929 -6.32013 0.498076
rclavicle -5.12864e-014 -1.59028e-014
rhumerus -51.5446 17.4013 -92.8852
rradius 54.1003
rwrist -5.9017
rhand -34.414 16.7604
rfingers 7.12502
rthumb -7.57919 -13.0838
lclavicle -5.12864e-014 -1.59028e-014
lhumerus -28.6975 -25.881 89.8167
lradius 74.3843
lwrist 36.3211
lhand -26.3777 25.8598
lfingers 7.12502
lthumb 0.180934 55.8394
rfemur -22.825 6.61536 17.2704
rtibia 43.7692
rfoot -33.1243 6.51451
rtoes -2.9315
lfemur -18.4782 -10.165 -8.88843
ltibia 39.4776
lfoot -30.6704 0.331016
ltoes -19.826
165
root 5.34331 19.8729 1.1741 12.4816 80.3963 5.60459
lowerback 13.6714 -4.96362 -5.81782
upperback 0.368401 -7.45805 -0.118244
thorax -6.51452 -3.4451 4.50055
lowerneck -15.7087 -10.7436 -4.6985
upperneck 35.5561 -16.4131 6.48146
head 16.3866 -6.36877 0.553592
rclavicle 4.09496e-014 -1.35174e-014
rhumerus -51.5253 17.4219 -93.3073
rradius 53.5171
rwrist -5.92344
rhand -34.1315 16.8953
rfingers 7.12502
rthumb -7.30645 -12.9586
lclavicle 4.09496e-014 -1.35174e-014
lhumerus -28.894 -25.6424 89.5141
lradius 74.7793
lwrist 36.6173
lhand -26.2495 25.9868
lfingers 7.12502
lthumb 0.304749 55.9663
rfemur -23.1868 6.54185 17.123
rtibia 44.2461
rfoot -33.2148 6.32933
rtoes -3.24512
lfemur -18.8358 -9.93058 -8.78963
ltibia 39.8418
lfoot -29.2958 -0.810913
ltoes -20.2524
166
root 5.30662 19.8635 1.44891 13.9418 80.3672 7.06359
lowerback 13.9668 -4.80604 -6.01716
upperback 0.510172 -7.29261 -0.199537
thorax -6.53123 -3.35759 4.51967
lowerneck -15.8174 -10.8079 -4.63996
upperneck 35.3954 -16.5256 6.52513
head 16.3389 -6.40622 0.533261
rclavicle -2.00773e-014 1.19271e-014
rhumerus -51.4095 17.329 -93.713
rradius 52.8551
rwrist -5.46529
rhand -34.2856 16.5491
rfingers 7.12502
rthumb -7.45523 -13.2996
lclavicle -2.00773e-014 1.19271e-014
lhumerus -29.0646 -25.5955 89.2147
lradius 75.1604
lwrist 36.6903
lhand -26.4637 26.1421
lfingers 7.12502
lthumb 0.0978486 56.1218
rfemur -23.5715 6.50584 16.9783
rtibia 44.7207
rfoot -33.4927 5.84232
rtoes -4.27229
lfemur -19.2061 -9.90959 -8.62944
ltibia 40.2596
lfoot -27.6914 -2.12786
ltoes -20.7169
167
root 5.26897 19.8531 1.72311 15.2851 80.2825 8.47206
lowerback 14.3808 -4.64436 -6.22349
upperback 0.636755 -7.13252 -0.27899
thorax -6.6288 -3.26777 4.55806
lowerneck -15.8546 -10.8898 -4.69712
upperneck 35.2334 -16.6613 6.65514
head 16.3013 -6.45879 0.56609
rclavicle 1.72943e-014 8.74653e-015
rhumerus -51.318 17.3274 -94.0806
rradius 52.286
rwrist -5.21866
rhand -34.0961 16.6307
rfingers 7.12502
rthumb -7.27237 -13.2243
lclavicle 1.72943e-014 8.74653e-015
lhumerus -29.2632 -25.4198 88.8758
lradius 75.5671
lwrist 36.9489
lhand -26.2934 26.2159
lfingers 7.12502
lthumb 0.262408 56.1955
rfemur -23.8885 6.57929 16.7951
rtibia 45.2235
rfoot -33.673 5.76259
rtoes -4.52801
lfemur -19.5959 -9.87897 -8.5028
ltibia 40.8022
lfoot -26.0938 -3.29642
ltoes -21.9967
